<svg width="38" height="38" viewBox="0 0 38 38" fill="none" xmlns="http://www.w3.org/2000/svg">
<path d="M34.8333 9.05661L27.55 2.94495L25.5075 5.36745L32.7908 11.4791L34.8333 9.05661ZM12.4767 5.36745L10.45 2.94495L3.16667 9.04078L5.20917 11.4633L12.4767 5.36745ZM19.7917 12.6666H17.4167V22.1666L24.9375 26.6791L26.125 24.7316L19.7917 20.9791V12.6666ZM19 6.33328C11.1308 6.33328 4.75001 12.7141 4.75001 20.5833C4.75001 28.4524 11.115 34.8333 19 34.8333C26.8692 34.8333 33.25 28.4524 33.25 20.5833C33.25 12.7141 26.8692 6.33328 19 6.33328ZM19 31.6666C12.8725 31.6666 7.91667 26.7108 7.91667 20.5833C7.91667 14.4558 12.8725 9.49995 19 9.49995C25.1275 9.49995 30.0833 14.4558 30.0833 20.5833C30.0833 26.7108 25.1275 31.6666 19 31.6666Z" fill="#3F51B5"/>
</svg>
