<svg width="24" height="24" viewBox="0 0 24 24" fill="none" xmlns="http://www.w3.org/2000/svg">
<path d="M12 5V3.41421C12 2.52331 10.9229 2.07714 10.2929 2.70711L7.70711 5.29289C7.31658 5.68342 7.31658 6.31658 7.70711 6.70711L10.2929 9.2929C10.9229 9.92286 12 9.47669 12 8.58579V7C15.31 7 18 9.69 18 13C18 16.31 15.31 19 12 19C9.02918 19 6.55781 16.833 6.08251 13.9958C5.99126 13.4511 5.55228 13 5 13C4.44772 13 3.99345 13.45 4.06158 13.998C4.55243 17.9466 7.91799 21 12 21C16.42 21 20 17.42 20 13C20 8.58 16.42 5 12 5Z" fill="white"/>
</svg>
